<svg width="16" height="16" viewBox="0 0 16 16" fill="none" xmlns="http://www.w3.org/2000/svg">
  <!-- Flux: spiral vortex with flowing energy -->

  <!-- Outer swirl arms -->
  <path d="M8 1C4.5 1 2 3.5 2 6.5C2 8.5 3.2 10.2 5 11" stroke="currentColor" stroke-width="1.4" stroke-linecap="round" fill="none"/>
  <path d="M8 15C11.5 15 14 12.5 14 9.5C14 7.5 12.8 5.8 11 5" stroke="currentColor" stroke-width="1.4" stroke-linecap="round" fill="none"/>

  <!-- Inner spiral -->
  <path d="M8 4.5C6.2 4.5 5 5.8 5 7.5C5 9 6 10 7.5 10.2" stroke="currentColor" stroke-width="1.3" stroke-linecap="round" fill="none"/>
  <path d="M8 11.5C9.8 11.5 11 10.2 11 8.5C11 7 10 6 8.5 5.8" stroke="currentColor" stroke-width="1.3" stroke-linecap="round" fill="none"/>

  <!-- Center dot (vortex core) -->
  <circle cx="8" cy="8" r="1.3" fill="currentColor"/>

  <!-- Energy particles / stars -->
  <circle cx="2.5" cy="3" r="0.6" fill="currentColor"/>
  <circle cx="13.5" cy="13" r="0.6" fill="currentColor"/>
  <circle cx="12" cy="2.5" r="0.5" fill="currentColor"/>
  <circle cx="4" cy="13.5" r="0.5" fill="currentColor"/>
</svg>
